<svg xmlns="http://www.w3.org/2000/svg" viewBox="0 0 336.36 42.26"><defs><style>.cls-1{fill:#2a4735;}</style></defs><g id="Layer_2" data-name="Layer 2"><g id="Layer_1-2" data-name="Layer 1"><path class="cls-1" d="M100.89,41.61l9.82-18.94h.12l2.63,18.07a1.2,1.2,0,0,0,1.11.93h6.9a1.07,1.07,0,0,0,1.11-1.29L116,1.1a1.13,1.13,0,0,0-1.06-.94H114a1.31,1.31,0,0,0-1,.58L99.43,26h-.12L85.75.74a1.29,1.29,0,0,0-1-.58h-.93a1.12,1.12,0,0,0-1,.94L76.16,40.38a1.07,1.07,0,0,0,1.11,1.29h6.9a1.14,1.14,0,0,0,1.11-.93l2.57-18.07H88l9.88,18.94a1.28,1.28,0,0,0,1,.65H99.9a1.37,1.37,0,0,0,1-.65"/><path class="cls-1" d="M154.48,40.21c.53,1.11,1,1.46,2.05,1.46H163a1,1,0,0,0,1-1.52L145.71.8a1.17,1.17,0,0,0-1-.64h-.58a1.2,1.2,0,0,0-1,.64l-18.3,39.35a1,1,0,0,0,1,1.52h6.43a2.17,2.17,0,0,0,2.1-1.4l2.11-4.68h15.9ZM140,27.64,144.37,18h.06l4.44,9.65Z"/><path class="cls-1" d="M189,41.67h7.66a.91.91,0,0,0,.76-1.42l-7.64-11.49c5.11-2.31,8-6.39,8-12.85C197.76,5.8,190.81.26,179.24.26H168.73a1,1,0,0,0-.94.94V40.54a1.14,1.14,0,0,0,1.14,1.13h6.26a1.14,1.14,0,0,0,1.13-1.13V31.38h2.92a16.59,16.59,0,0,0,2.44-.18l6.55,10.06a.94.94,0,0,0,.77.41M176.32,24V7.75H179c6.82,0,10,2.31,10,8.16s-3.05,8-10,8Z"/><path class="cls-1" d="M284.39,26V1.86A1.16,1.16,0,0,0,283.28.74h-7.19A1.11,1.11,0,0,0,275,1.86V25.53a7.25,7.25,0,1,1-14.5,0V1.86A1.12,1.12,0,0,0,259.37.74h-7.2a1.16,1.16,0,0,0-1.11,1.12V26a16.67,16.67,0,0,0,33.33,0"/><path class="cls-1" d="M292.75,1.86v38.7a1.14,1.14,0,0,0,1.11,1.11h7A1.14,1.14,0,0,0,302,40.56V1.86A1.14,1.14,0,0,0,300.87.75h-7a1.14,1.14,0,0,0-1.11,1.11"/><path class="cls-1" d="M308.83,11.8c0,7,6.31,10.93,11.34,12.92,4,1.58,6,3.45,6,5.9,0,2.05-1.7,3.51-4,3.51-3.86,0-8.07-3.1-8.31-3.22a1.5,1.5,0,0,0-2,.35l-2.75,4.86c-.47.82-.29,1.05.29,1.63,1.35,1.35,5.55,4.51,13.16,4.51,8.59,0,13.79-6.08,13.79-12.11,0-7.95-7.25-11.51-11.81-13.33s-6.37-3.5-6.37-5.67c0-1.58,1.58-3,3.68-3,3.57,0,7.84,3.22,8.36,3.51s1.58-.12,2-.76l3-4.5a1.46,1.46,0,0,0-.35-1.87A21.7,21.7,0,0,0,322.33.16c-9,0-13.5,5.85-13.5,11.64"/><path class="cls-1" d="M247.06,41.09V34.86a1.13,1.13,0,0,0-1-1.14,12.62,12.62,0,0,1-5.09-1.35,21.07,21.07,0,1,0-6.09,6.29,21,21,0,0,0,11,3.57,1.14,1.14,0,0,0,1.18-1.14m-24-32.58A12.59,12.59,0,0,1,234.26,27c-3.72-3.53-8.47-7.5-16.94-7.5a22.66,22.66,0,0,0-6.82,1,12.62,12.62,0,0,1,12.58-12M213,28.61a13.88,13.88,0,0,1,4.37-.65c5,0,7.75,2,10.68,4.78a12.4,12.4,0,0,1-4.92,1A12.58,12.58,0,0,1,213,28.61"/><path class="cls-1" d="M30.89,27.54A78.49,78.49,0,0,1,56.7,31.6a.58.58,0,0,0,.78-.46L61.77,5.66A.43.43,0,0,0,61,5.28L47.39,18.92a.61.61,0,0,1-.85,0L31.32,3.64a.62.62,0,0,0-.86,0L15.24,18.92a.62.62,0,0,1-.86,0L.73,5.28A.43.43,0,0,0,0,5.66L4.29,31.14a.58.58,0,0,0,.78.46,78.55,78.55,0,0,1,25.82-4.06"/><path class="cls-1" d="M54.41,36.79a.84.84,0,0,0,.31-1.62,70,70,0,0,0-23.83-4,70,70,0,0,0-23.83,4,.84.84,0,0,0,.31,1.62Z"/></g></g></svg>