<svg xmlns="http://www.w3.org/2000/svg" viewBox="0 0 520 80">
  <path d="M42 6c-12.7 0-23 10.3-23 23s10.3 23 23 23c3.5 0 6.8-.8 9.8-2.2 1-.5 2.1-.2 2.6.8.5 1 .2 2.1-.8 2.6C50.1 55 46.1 56 42 56 27.1 56 15 43.9 15 29S27.1 2 42 2c8.3 0 15.8 3.7 20.8 9.6.7.8.6 2.1-.2 2.8-.8.7-2.1.6-2.8-.2C55.3 9 48.9 6 42 6z" fill="#00A1E0"/>
  <path d="M66.7 22.3c-.3-1.1-1.4-1.7-2.5-1.4-1.1.3-1.7 1.4-1.4 2.5.5 1.8.7 3.7.7 5.6 0 11-8.4 20.1-19.1 21.2v-6.7c0-1.1-.9-2-2-2s-2 .9-2 2V51c0 .1 0 .2.1.3 0 .1.1.3.1.4.1.1.1.2.2.3.1.1.1.2.2.3.1.1.2.2.3.2.1.1.2.1.3.2.1 0 .3.1.4.1.1 0 .2.1.4.1h.2c12.7-1 22.8-11.7 22.8-24.7 0-2.2-.3-4.4-.7-6.5z" fill="#00A1E0"/>
  <text x="92" y="49" font-family="'Arial', 'Helvetica', sans-serif" font-size="38" font-weight="bold" fill="#00A1E0">salesforce</text>
</svg>